<svg id="Layer_1" data-name="Layer 1" xmlns="http://www.w3.org/2000/svg" viewBox="0 0 500 500"><defs><style>.cls-1{fill:#fbba0e;}.cls-2{fill:#444;}</style></defs><title>individual-health-insurance-illus</title><path class="cls-1" d="M480.65,170.56c-3.33-12.66-9.9-24.44-21.89-30.57s-25.89-7.31-39.08-5.86c-14.18,1.57-27.59,7.21-40.69,12.65-15.42,6.4-30.65,13.28-46.17,19.42-8.18,3.23-16.4,6.39-24.65,9.41-15.58,5.69-34.63,11.1-30.36,31.9,1.24,6.06,3.8,11.69,5.63,17.55,2.06,6.66,4.17,13.33,6.41,19.93.91,2.7,2.31,5.17,3.24,7.84,1,2.85,1.61,5.82,2.63,8.67,2,5.66,3.45,11.92,6.69,17a20.25,20.25,0,0,0,12.93,9.36c9,1.91,14.53-1.29,22-5.4,20.4-11.21,43.41-17.8,64.95-26.46,25.87-10.39,58.77-20,72.43-46.75C481.08,196.9,484.25,184.28,480.65,170.56Zm-16.86,26.63c-2.48,5.54-5.26,11-9.53,15.42s-9.74,7.59-15.09,10.69c-12,6.95-24.59,11.49-37.32,16.82-7.13,3-14.41,5.62-21.63,8.4-6.81,2.63-14.07,4.47-20.62,7.68-6.7,3.28-13.62,6.1-20.49,9-5.8,2.48-15,8.85-21.61,7.23-3.33-.82-4-5.16-4.9-8-1.38-4.24-3-8.39-4.2-12.69s-3.3-8.34-4.66-12.65c-2.78-8.8-6.14-17.47-8.8-26.28-1.07-3.54-3.71-8.82-2.6-12.54a6.43,6.43,0,0,1,2.09-2.87c2.48-.93,4.95-2.14,7.39-3.3l.36-.17c1.65-.78,3.29-1.52,4.91-2.12q9.6-3.51,19.15-7.14c12.7-4.84,25-10.73,37.59-15.67,23.21-9.08,47.55-23.34,73.34-20.2,10.29,1.25,20,5.46,25,14.93A42.29,42.29,0,0,1,466.81,181,30.68,30.68,0,0,1,463.79,197.19Z"/><path class="cls-2" d="M19.35,170.56c3.33-12.66,9.9-24.44,21.89-30.57s25.89-7.31,39.08-5.86c14.18,1.57,27.59,7.21,40.69,12.65,15.42,6.4,30.65,13.28,46.17,19.42,8.18,3.23,16.4,6.39,24.66,9.41,4,1.45,8,2.83,11.88,4.42l.54.24c4.64,2,10.63,3.23,14.13,7.39,4.22,5,5.07,13.69,3.8,19.85s-3.8,11.69-5.63,17.55c-2.06,6.66-4.17,13.33-6.41,19.93-.91,2.7-2.31,5.17-3.24,7.84-1,2.85-1.61,5.82-2.63,8.67-2,5.66-3.45,11.92-6.69,17a20.25,20.25,0,0,1-12.93,9.36c-9,1.91-14.53-1.29-22-5.4-20.4-11.21-43.41-17.8-64.95-26.46-25.87-10.39-58.77-20-72.43-46.75C18.92,196.9,15.75,184.28,19.35,170.56Zm16.86,26.63c2.48,5.54,5.26,11,9.53,15.42s9.74,7.59,15.09,10.69c12,6.95,24.59,11.49,37.32,16.82,7.13,3,14.41,5.62,21.63,8.4,6.81,2.63,14.07,4.47,20.62,7.68s13.62,6.1,20.49,9c4.91,2.1,9.25,5.34,14.4,6.95,7.62,2.37,9.86-.77,12.11-7.67,1.38-4.24,3-8.39,4.2-12.69s3.3-8.34,4.66-12.65c2.78-8.8,6.14-17.47,8.8-26.28,1-3.22,3-6.85,2.82-10.39-.22-5.48-5.47-6.31-9.7-8.32l-.36-.17c-1.65-.78-3.29-1.52-4.91-2.12q-9.6-3.51-19.15-7.14c-12.7-4.84-25-10.73-37.59-15.67C113,160,88.62,145.75,62.83,148.89c-10.29,1.25-20,5.46-25,14.93A42.29,42.29,0,0,0,33.19,181,30.68,30.68,0,0,0,36.21,197.19Z"/><path class="cls-1" d="M291.77,372.74c3.74-1.5,6.39-5.05,5.2-9.25-1-3.57-5.45-6.72-9.25-5.2-4,1.61-8.06,3.1-12.1,4.62A23.81,23.81,0,0,0,273,359c1.21-.46,2.42-.93,3.62-1.41,1.77-.71,3.9-2.16,5.86-2.14,9.66.09,9.6-14.91-.06-15-5-.05-9.56,2.56-14.12,4.34-5.44,2.12-10.86,4.3-16.33,6.32s-10.84,3.92-16.21,6c-5.09,2-10.6,5.69-15.94,6.62-9.49,1.64-5.4,16.08,4,14.44,4.89-.84,9.56-4.06,14.15-5.91,5-2,10.14-3.85,15.23-5.71a7.41,7.41,0,0,0,3.78,1c2.09,0,3.35-.13,4.47,1.05-5.9,2.55-11.76,5.08-18,6.65-9.36,2.35-5.33,16.8,4.05,14.45A93,93,0,0,0,260,385.46a24.66,24.66,0,0,1-7.4,5.91c-5.74,3.18-4.22,12,1.85,13.7,4.61,1.3,9.62,1,14.35,2.14a99,99,0,0,1,14.76,4.8c3.76,1.58,8,1.05,10.25-2.74,1.87-3.14,1-8.67-2.73-10.25a141.59,141.59,0,0,0-16.6-5.87l-1.25-.32a29.25,29.25,0,0,0,5.66-15.19C283.18,376,287.5,374.45,291.77,372.74Z"/><path class="cls-2" d="M273.74,272.56c3-2.69,4.28-6.93,1.73-10.47-2.18-3-7.43-4.45-10.47-1.72-3.22,2.88-6.52,5.67-9.8,8.48a23.15,23.15,0,0,0-3.78-2.79c1-.85,2-1.7,2.92-2.57,3.3-3,9.09-5.24,9.61-10.3.53-5.24-5.17-9.5-10-7.79s-8.11,5.68-11.79,8.91c-4.39,3.85-8.73,7.75-13.18,11.53s-8.85,7.38-13.17,11.2c-4.1,3.62-8,9-12.71,11.67-8.36,4.79.42,17,8.74,12.19,4.31-2.46,7.6-7.08,11.28-10.39,4-3.62,8.2-7.09,12.35-10.58a7.41,7.41,0,0,0,3.89-.36c2-.7,3.11-1.27,4.57-.55a117.8,117.8,0,0,1-14.68,12.43c-8,5.4.73,17.61,8.74,12.19a93,93,0,0,0,10.27-8.26,24.62,24.62,0,0,1-4.93,8.08c-4.31,5,.13,12.71,6.42,12.25,4.78-.36,9.37-2.37,14.21-2.9a99.41,99.41,0,0,1,15.52-.54c4.08.2,7.88-1.75,8.7-6.08.68-3.59-2-8.49-6.08-8.69a138,138,0,0,0-17.61.16l-1.28.12a29.2,29.2,0,0,0,.12-16.21C266.79,278.57,270.32,275.63,273.74,272.56Z"/></svg>