<svg width="69" height="68" viewBox="0 0 69 68" fill="none" xmlns="http://www.w3.org/2000/svg">
<path d="M22.1691 55.5293H61.4521V60.8195C61.4521 63.7407 59.083 66.1097 56.1619 66.1097H16.8789C19.8001 66.1097 22.1691 63.7407 22.1691 60.8195V55.5293Z" fill="#B6D9F2"/>
<path d="M1.00392 16.2464H11.5804V10.9562C11.5804 8.03506 9.21137 5.66602 6.2902 5.66602C3.36904 5.66602 1 8.03506 1 10.9562V16.2464H1.00392Z" fill="#B6D9F2"/>
<path d="M22.1608 55.5333V60.8235C22.1608 63.7446 19.7918 66.1137 16.8706 66.1137C13.9494 66.1137 11.5804 63.7446 11.5804 60.8235V10.964C11.5804 8.04286 9.21135 5.67383 6.29019 5.67383C3.36903 5.67383 1 8.04286 1 10.964V16.2542" stroke="#454545" stroke-width="1.5" stroke-linecap="round" stroke-linejoin="round"/>
<path d="M53.3605 51.7389V10.9562C53.3605 8.03506 50.9915 5.66602 48.0703 5.66602H6.28125" stroke="#454545" stroke-width="1.5" stroke-linecap="round" stroke-linejoin="round"/>
<path d="M22.1691 55.5293H61.4521V60.8195C61.4521 63.7407 59.083 66.1097 56.1619 66.1097H16.8789" stroke="#454545" stroke-width="1.5" stroke-linecap="round" stroke-linejoin="round"/>
<path d="M11.0343 17H1.58984" stroke="#454545" stroke-width="1.5" stroke-linejoin="round"/>
<path d="M21.9688 25.6621H42.9808" stroke="#454545" stroke-width="1.5" stroke-linecap="round" stroke-linejoin="round"/>
<path d="M21.9688 35.6152H42.9808" stroke="#454545" stroke-width="1.5" stroke-linecap="round" stroke-linejoin="round"/>
</svg>
