<svg width="30" height="30" viewBox="0 0 30 30" fill="none" xmlns="http://www.w3.org/2000/svg">
<path d="M24.4102 10.1772C27.0098 10.1772 29.1165 12.284 29.1165 14.8836C29.1165 17.4833 27.0098 19.5899 24.4102 19.5899V10.1772Z" fill="#B2CCFF" stroke="#B2CCFF" stroke-linecap="round" stroke-linejoin="round"/>
<path d="M5.58717 10.1772C2.98753 10.1772 0.880859 12.284 0.880859 14.8836C0.880859 17.4833 2.98753 19.5899 5.58717 19.5899V10.1772Z" fill="#B2CCFF" stroke="#B2CCFF" stroke-linecap="round" stroke-linejoin="round"/>
<path d="M26.382 10.6082C27.9957 11.3534 29.1165 12.9883 29.1165 14.8832C29.1165 17.4828 27.0098 19.5895 24.4102 19.5895V10.1768" stroke="#454545" stroke-linecap="round" stroke-linejoin="round"/>
<path d="M3.60182 10.6159C1.99582 11.3649 0.880859 12.9941 0.880859 14.8832C0.880859 17.4828 2.98753 19.5895 5.58717 19.5895V10.1768" stroke="#454545" stroke-linecap="round" stroke-linejoin="round"/>
<path d="M5.58984 10.1763C5.58984 4.97892 9.80319 0.763672 15.0025 0.763672C20.2018 0.763672 24.4151 4.97699 24.4151 10.1763" stroke="#454545" stroke-linecap="round" stroke-linejoin="round"/>
<path d="M17.2949 26.7031C21.2252 26.7031 24.4102 23.5182 24.4102 19.5879" stroke="#454545" stroke-linecap="round" stroke-linejoin="round"/>
<path d="M17.2959 26.7041C17.2959 27.9731 16.2675 29.0014 15.0005 29.0014C13.7334 29.0014 12.7051 27.9731 12.7051 26.7041C12.7051 25.4351 13.7334 24.4087 15.0005 24.4087C16.2675 24.4087 17.2959 25.437 17.2959 26.7041Z" fill="white" stroke="white" stroke-linecap="round" stroke-linejoin="round"/>
<path d="M17.2959 26.7041C17.2959 27.9731 16.2675 29.0014 15.0005 29.0014C13.7334 29.0014 12.7051 27.9731 12.7051 26.7041C12.7051 25.4351 13.7334 24.4087 15.0005 24.4087C16.2675 24.4087 17.2959 25.437 17.2959 26.7041Z" fill="#B2CCFF" stroke="#454545" stroke-linecap="round" stroke-linejoin="round"/>
<path d="M17.8379 13.377H19.6499" stroke="#454545" stroke-linecap="round" stroke-linejoin="round"/>
<path d="M12.1577 13.377H10.3457" stroke="#454545" stroke-linecap="round" stroke-linejoin="round"/>
<path d="M15.0032 2.82275C11.1192 2.82275 7.9707 6.11557 7.9707 10.1749H7.97649C7.96878 9.98422 7.97649 10.3694 7.97649 10.1749C9.98495 9.49896 11.1789 8.19342 11.978 6.58165C11.978 6.58165 11.978 6.5816 11.978 6.57967H11.9799V6.58165C13.093 8.84815 16.3512 10.4599 19.671 10.4599C20.4933 10.4599 21.2944 10.3578 22.0377 10.1749C22.0377 10.3732 22.0454 9.98037 22.0377 10.1749C22.0377 6.11365 18.8892 2.82275 15.0051 2.82275H15.0032Z" fill="#B2CCFF"/>
<path d="M7.97649 10.1749H7.9707C7.9707 6.11557 11.1192 2.82275 15.0032 2.82275H15.0051C18.8892 2.82275 22.0377 6.11365 22.0377 10.1749M7.97649 10.1749C7.96878 9.98422 7.97649 10.3694 7.97649 10.1749ZM7.97649 10.1749C9.98495 9.49896 11.1789 8.19342 11.978 6.58165C11.978 6.58165 11.978 6.5816 11.978 6.57967H11.9799V6.58165C13.093 8.84815 16.3512 10.4599 19.671 10.4599C20.4933 10.4599 21.2944 10.3578 22.0377 10.1749M22.0377 10.1749C22.0377 10.3732 22.0454 9.98037 22.0377 10.1749Z" stroke="#B2CCFF" stroke-linecap="round" stroke-linejoin="round"/>
<path d="M7.98233 10.173H7.97656C7.97656 6.11179 11.125 2.8208 15.0091 2.8208C18.8931 2.8208 22.0416 6.11371 22.0416 10.173" stroke="#454545" stroke-linecap="round" stroke-linejoin="round"/>
<path d="M22.0344 10.1757C21.2911 10.3586 20.4977 10.4588 19.6755 10.4588C16.3556 10.4588 13.0955 8.84704 11.9844 6.57861" stroke="#454545" stroke-linecap="round" stroke-linejoin="round"/>
</svg>
