<svg xmlns="http://www.w3.org/2000/svg" width="80" height="80" viewBox="0 0 80 80"><defs><style>.cls-1{fill:#fff;}.cls-2{fill:#fb0;}.cls-3,.cls-5{fill:#444445;}.cls-3{stroke:#444;stroke-miterlimit:10;stroke-width:0.25px;}.cls-4{fill:#444;}.cls-6{fill:none;}</style></defs><title>OD_for_car</title><g id="Layer_17" data-name="Layer 17"><path class="cls-1" d="M75,50c0-.19,0-.38,0-.58a2.2,2.2,0,0,0,0-.37,1.1,1.1,0,0,1,0-.41c.16-.85.72-3.12.17-3.88l-.27-.34a8,8,0,0,0-4.92-2.22c-2.24-.4-4.52-.66-6.79-.88-5.42-.54-10.79-.51-16.23-.51-5.09.13-10.19.09-15.29,0-2.76-.05-5.53-.06-8.29-.2a5.06,5.06,0,0,1-3.19-.93A2,2,0,0,1,19.39,38a6.29,6.29,0,0,1-.18-1.14c-.05-.73-.29-1-1-.51a23.07,23.07,0,0,1-6.67,2.76c-1.42.34-2.74.6-4.14,1.08a2.15,2.15,0,0,0-1,.55A2.06,2.06,0,0,0,6,41.75c-.35,2.12-1.09,4.51-.9,6.67A5.33,5.33,0,0,0,9,50.81a3.86,3.86,0,0,0,3-.21,15.94,15.94,0,0,0,2-2.2,5,5,0,0,1,7.91,1.05,9.08,9.08,0,0,0,.92,1.64c.89,1,2.62.84,3.86.93,1.69.12,10.53.42,12.22.49,7.93.31,8.68-.57,16.61-.57a8.89,8.89,0,0,0,1.86-.08c1.24-.26,1.44-1.35,2.07-2.28a5.65,5.65,0,0,1,3.45-2.43,5.44,5.44,0,0,1,6.5,4.5c.19,1.2,2.63,1,3.46.81A2.45,2.45,0,0,0,75,50Z"/><path class="cls-2" d="M6.57,41.2s14.68,1.68,27.69,1.68q3.15,0,6.32.13c1.11,0,2.22,0,3.32.17a6.45,6.45,0,0,1,1.58.27c1,.36,1.24,1.42.18,1.84a7.74,7.74,0,0,1-2.12.42,41.21,41.21,0,0,1-4.16.17c-1.29,0-2.58-.07-3.86-.07l-13.87.09a7,7,0,0,0-8.48,0l-8-.4.21-1.78S6.15,40.78,6.57,41.2Z"/><path class="cls-3" d="M59.2,51q-18.27.44-36.55.35a1,1,0,0,0,0,2q18.27.09,36.55-.35A1,1,0,0,0,59.2,51Z"/><path class="cls-4" d="M76.46,45.24c0-1.49-1-2.42-2.26-3.07-3-1.59-6.39-1.82-9.68-2-1.74-.1-3.49-.11-5.22-.27a21.17,21.17,0,0,1-2.63-.42,6.16,6.16,0,0,1-2-.64c-.65-.42-1.21-1-1.84-1.44A24.79,24.79,0,0,0,48.54,35a33.12,33.12,0,0,0-4.9-1.72,39.8,39.8,0,0,0-13.8-1.6A37.6,37.6,0,0,0,17.15,35.5,42.6,42.6,0,0,1,11.08,38a20.37,20.37,0,0,1-2.57.47c-.53.08-1,.19-1.56.3a3.7,3.7,0,0,0-1.38.36,2.15,2.15,0,0,0-.58.72,4.53,4.53,0,0,0-.44,1.77,10.49,10.49,0,0,1-.35,2.3,7.57,7.57,0,0,0-.36,5A5.14,5.14,0,0,0,7,52.14a16.49,16.49,0,0,0,5.24.63,1,1,0,0,0,0-2A17.65,17.65,0,0,1,8,50.36a3.15,3.15,0,0,1-2.33-2.13,6,6,0,0,1,.42-3.82,7.64,7.64,0,0,0,.35-2.23A3.57,3.57,0,0,1,6.64,41c1.47-.81,3.61-.75,5.17-1.22a41.87,41.87,0,0,0,5.58-2.23l1.06-.49a4.92,4.92,0,0,0,3.28,4.21,16.58,16.58,0,0,0,5,.43c1.89,0,3.77.06,5.66.08,4.27,0,8.54,0,12.81-.08l5.27-.13,2.64-.09a42.57,42.57,0,0,1,4.52.11c1.43.11,2.86.34,4.29.41,2.1.1,4.21.14,6.3.42.46.06.9.15,1.35.22a12.19,12.19,0,0,1,4,1.4c.55.33,1,.63.94,1.32A19.28,19.28,0,0,1,74,47.49c-.18,1.09.44,2.93-.38,3.81s-3,.53-4.13.51a1,1,0,0,0,0,2c1.51,0,3.38.23,4.76-.51a3.46,3.46,0,0,0,1.74-3.1A13.57,13.57,0,0,1,76,47.35,9.11,9.11,0,0,0,76.46,45.24ZM26.21,39.73c-1.38,0-3.13.17-4.37-.54a3.08,3.08,0,0,1-1.44-3,31.54,31.54,0,0,1,9-2.56,29.87,29.87,0,0,1,4.82-.08,46.59,46.59,0,0,1,.71,6.23C32,39.81,29.11,39.79,26.21,39.73Zm10.71.09a58.15,58.15,0,0,0-.64-6,49,49,0,0,1,6,1.16,28.17,28.17,0,0,1,9.27,4c.26.19.51.39.76.61C47.2,39.7,42.06,39.81,36.92,39.82Z"/><path class="cls-5" d="M17.36,57.12a5.91,5.91,0,1,1,5.91-5.91A5.91,5.91,0,0,1,17.36,57.12Zm0-9.81a3.91,3.91,0,1,0,3.91,3.9A3.91,3.91,0,0,0,17.36,47.31Z"/><path class="cls-5" d="M64.08,57.12a5.61,5.61,0,1,1,5.76-5.61A5.69,5.69,0,0,1,64.08,57.12Zm0-9.32a3.71,3.71,0,1,0,3.81,3.71A3.76,3.76,0,0,0,64.08,47.8Z"/><path class="cls-2" d="M63.72,32.45l-2.11,1.91-.6.55a14.4,14.4,0,0,0-7.81-12.2c-5.49-2.75-12.53-4-18.53-2.48a1,1,0,0,0,.53,1.93c5.37-1.34,11.63-.24,16.59,2.09A12.44,12.44,0,0,1,59,34.5L55,31.79a1,1,0,0,0-1.37.35A1,1,0,0,0,54,33.51l2.86,2,1.47,1a6.2,6.2,0,0,0,1.45.85c1.2.39,2-.43,2.82-1.17l2.52-2.3C66.08,33,64.67,31.58,63.72,32.45Z"/><rect class="cls-6" width="80" height="80"/></g></svg>