<svg xmlns="http://www.w3.org/2000/svg" width="56" height="54" fill="none" stroke-linejoin="round" xmlns:v="https://vecta.io/nano"><path d="M2.284 1.59h34.31c.681 0 1.233.575 1.233 1.286v48.246c0 .71-.552 1.286-1.233 1.286H2.284c-.681 0-1.233-.575-1.233-1.286V2.879c0-.71.552-1.286 1.233-1.286V1.59z" fill="#fff" stroke="#fff" stroke-width=".804"/><g stroke="#454545" stroke-width="1.5"><g stroke-linecap="round"><path d="M37.827 46.977v2.076 2.076c0 .71-.552 1.286-1.233 1.286H2.284c-.681 0-1.233-.575-1.233-1.286V2.883c0-.71.552-1.286 1.233-1.286h34.31c.681 0 1.233.575 1.233 1.286v6.016"/><path d="M9.969 12.152H22.05m-.001 9.903H9.969m6.313 9.894H9.969"/></g><path d="M51.934 30.447V18.751c-4.465 0-8.348-1.113-10.354-3.751-2.006 2.637-5.889 3.751-10.354 3.751v11.696c0 2.116 1.063 4.087 2.829 5.25l7.525 4.944 7.525-4.944c1.766-1.163 2.829-3.134 2.829-5.25z" fill="#b6d9f2"/><path d="M48.082 23.566l-6.909 9.235-4.767-5.429" stroke-linecap="round"/></g></svg>