<svg xmlns="http://www.w3.org/2000/svg" width="80" height="80" viewBox="0 0 80 80"><defs><style>.cls-1{fill:#444;}.cls-2{fill:#fb0;}.cls-3{fill:#fff;}.cls-4{fill:none;}.cls-5{fill:#444545;}</style></defs><title>Employee_health</title><g id="Layer_18" data-name="Layer 18"><path class="cls-1" d="M42.86,13.72c.14.07.07.07,0,0Z"/><path class="cls-1" d="M34.6,14.41a1.71,1.71,0,0,0-1.18-1.26,1.46,1.46,0,0,0-1.1.14,1.78,1.78,0,0,0-.61.61l0,0,0,.05a.59.59,0,0,1,0,.08c-3.72,1.55-7,4.09-7.13,8.46a22.58,22.58,0,0,0,1.28,6.94,33.27,33.27,0,0,0,2.69,6.74c.62,1.13,2.35.12,1.73-1a28.51,28.51,0,0,1-2.27-5.55,28,28,0,0,1-1.41-6,6.42,6.42,0,0,1,1.67-5.12,10.59,10.59,0,0,1,3.06-2.09,1.39,1.39,0,0,0,.09.35,1.37,1.37,0,0,0,.85.78,1.67,1.67,0,0,0,.86,0,1.55,1.55,0,0,0,.59-.25,2.63,2.63,0,0,0,.61-.59,2.88,2.88,0,0,0,.24-.46,2.32,2.32,0,0,0,.16-.51A3.12,3.12,0,0,0,34.6,14.41Z"/><path class="cls-1" d="M40.14,14.41a1.71,1.71,0,0,1,1.18-1.26,1.46,1.46,0,0,1,1.1.14,1.78,1.78,0,0,1,.61.61l0,0,0,.05a.2.2,0,0,1,0,.08c3.72,1.55,7,4.09,7.13,8.46A22.58,22.58,0,0,1,49,29.48a33.27,33.27,0,0,1-2.69,6.74c-.62,1.13-2.35.12-1.73-1a28.55,28.55,0,0,0,2.28-5.55,28.54,28.54,0,0,0,1.4-6,6.42,6.42,0,0,0-1.67-5.12,10.59,10.59,0,0,0-3.06-2.09,1.39,1.39,0,0,1-.09.35,1.37,1.37,0,0,1-.85.78,1.67,1.67,0,0,1-.86,0,1.55,1.55,0,0,1-.59-.25,2.63,2.63,0,0,1-.61-.59,2.88,2.88,0,0,1-.24-.46,2.32,2.32,0,0,1-.16-.51A3.12,3.12,0,0,1,40.14,14.41Z"/><path class="cls-2" d="M44.33,35.59c-1.41,2.69-4,4.88-7.14,4.91-3.52,0-5.46-2.65-7.14-5.37-.68-1.09-2.41-.09-1.73,1a17.4,17.4,0,0,0,3.51,4.48c4.24,3.46,10.21,1.66,13.24-2.44a12.3,12.3,0,0,0,1-1.58C46.66,35.46,44.93,34.44,44.33,35.59Z"/><path class="cls-3" d="M65,42.49a10.23,10.23,0,0,1-1.58,1.88,11.18,11.18,0,0,1-1.74,1.44c-.64.43-1.22,1.23-2.09,1.23s-1.51-.8-2.16-1.23a17.15,17.15,0,0,1-1.73-1.44,8.12,8.12,0,0,1-1.59-1.88c-.57-.93-1.37-2.31-1.15-3.39a2.34,2.34,0,0,1,2.45-1.87,6,6,0,0,1,1.4.16,5,5,0,0,1,.66.2c.6.23,1.07.7,1.66.94a1,1,0,0,0,.83.08,5.1,5.1,0,0,0,.76-.48,5.34,5.34,0,0,1,1.47-.69,6,6,0,0,1,1.59-.21,2.42,2.42,0,0,1,2.45,1.87A5.88,5.88,0,0,1,65,42.49Z"/><path class="cls-4" d="M64,37.48c-1.31-.29-2.58.44-3.69,1.09a1,1,0,0,1-1.74.06c-.79-1.27-2.45-1.27-3.71-.8a2.14,2.14,0,0,0-1.48,2.79c.4,1.4,1.71,2.38,2.8,3.24l3.76,3,3.2-2.8c1.06-.92,2.57-2,2.79-3.48A2.94,2.94,0,0,0,64,37.48Z"/><path class="cls-2" d="M67.83,39.56a4.82,4.82,0,0,0-3.35-4,7,7,0,0,0-5,1.17,5,5,0,0,0-4.45-1,4.4,4.4,0,0,0-3.8,3.84,6.21,6.21,0,0,0,2.55,5c1.61,1.4,3.33,2.67,5,4a.52.52,0,0,0,0,.18c.06,2.21.21,4.57,0,6.88a12.76,12.76,0,0,1-2,6,7.41,7.41,0,0,1-4.29,3.15,14.65,14.65,0,0,1-6.35-.26,10.37,10.37,0,0,1-2.51-.92c-.47-.25-.91-.57-1.38-.82a1,1,0,0,0-.11-.17,7.2,7.2,0,0,1-.64-.71,8.51,8.51,0,0,1-.57-.9,5.24,5.24,0,0,0,.95-1.62,4,4,0,0,0-.11-2.15C41,54,40,50,39.22,46.8c-.07-.31-.35-.39-.69-.38l-.49.06-.63.18-.52-.15-1,0a.44.44,0,0,0-.27.32C34.79,50,33.8,54,33,57.15a4,4,0,0,0-.11,2.15A6.17,6.17,0,0,0,34,61.09l2.67,3.78a.84.84,0,0,0,.77.34.83.83,0,0,0,.76-.34l1.54-2.18a7.82,7.82,0,0,0,.67.85,2.6,2.6,0,0,0,.72.72C43.8,66.41,47.6,67,51,66.89a9.53,9.53,0,0,0,8.14-5.27,15.24,15.24,0,0,0,1.57-5.14s0,0,0-.07l0-.13c0-.11,0-.21,0-.31.09-.89.15-1.78.16-2.68V53.1a4.91,4.91,0,0,0,0-.67c0-1.24-.07-2.47-.1-3.68,1.57-1.38,3.17-2.74,4.72-4.14S68.17,41.62,67.83,39.56Zm-2,1c-.22,1.5-1.73,2.56-2.79,3.48l-3.2,2.8-3.76-3C55,43,53.73,42,53.33,40.62a2.14,2.14,0,0,1,1.48-2.79c1.26-.47,2.92-.47,3.71.8a1,1,0,0,0,1.74-.06c1.11-.65,2.38-1.38,3.69-1.09A2.94,2.94,0,0,1,65.88,40.56Z"/><path class="cls-5" d="M51.61,47.94a6.74,6.74,0,0,0-1.86-2.44A10.33,10.33,0,0,0,47.16,44a15.7,15.7,0,0,0-2.95-.89,14.69,14.69,0,0,0-1.47-.29c-.77-.09-1.32.54-1.9.94a6.94,6.94,0,0,1-1.7.85,7,7,0,0,1-5.42-.48,5.12,5.12,0,0,1-.87-.59c-.23-.2-.42-.5-.71-.63a2,2,0,0,0-1.22,0c-.53.13-1.06.24-1.59.38a15.53,15.53,0,0,0-2.87,1,7.41,7.41,0,0,0-3.72,3.62c-.8,1.81-.62,3.91-.57,5.83,0,2.16.17,4.32.36,6.48.12,1.27,2.12,1.28,2,0-.16-1.84-.28-3.68-.34-5.53a18,18,0,0,1,.2-5.53A5.33,5.33,0,0,1,27.5,46a11.77,11.77,0,0,1,1.89-.66c.32-.09.65-.17,1-.24a6.09,6.09,0,0,1,.85-.17c.34,0,.46.21.71.38s.42.28.63.41a9.67,9.67,0,0,0,1.34.64,8.65,8.65,0,0,0,2.89.58,8.55,8.55,0,0,0,1.6-.1A8.68,8.68,0,0,0,42,45.34c.16-.11.29-.28.45-.39a.6.6,0,0,1,.58-.05h0l.86.18.21,0c2.44.56,5,1.55,5.79,4a17.66,17.66,0,0,1,.21,5.53c-.06,1.85-.18,3.69-.34,5.53-.12,1.28,1.88,1.27,2,0,.19-2.16.32-4.32.36-6.48C52.23,51.85,52.41,49.75,51.61,47.94Z"/><rect class="cls-4" width="80" height="80"/></g></svg>