<svg xmlns="http://www.w3.org/2000/svg" width="80" height="80" viewBox="0 0 80 80"><defs><style>.cls-1{fill:#fff;}.cls-2{fill:#444;}.cls-3{fill:none;}.cls-4{fill:#fb0;}</style></defs><title>HEALTH</title><g id="Layer_17" data-name="Layer 17"><path class="cls-1" d="M61,36a3.71,3.71,0,0,0-2.18-.68c-1.63-.11-2.93,1.1-4.51,1.26h0a5.7,5.7,0,0,0-3.43-1.09A3.76,3.76,0,0,0,47.58,37c-.7,1.18-.06,2.71.5,3.81a11.94,11.94,0,0,0,2.39,3.13,18,18,0,0,0,3.27,2.43,2,2,0,0,0,.73.34,1.32,1.32,0,0,0,.87-.28c.64-.4,1.26-.82,1.86-1.28C59.45,43.4,61.41,41,61.49,38A2.7,2.7,0,0,0,61,36Z"/><path class="cls-2" d="M37.66,14.22c.14.07.07.07,0,0Z"/><path class="cls-1" d="M60.55,40.9a17.08,17.08,0,0,1-2.26,2.24,10.64,10.64,0,0,1-1.74,1.44c-.64.44-1.22,1.23-2.09,1.23S53,45,52.3,44.58a15.91,15.91,0,0,1-1.73-1.44,11.29,11.29,0,0,1-2.23-1.93c-.57-.93-1.28-1.93-1.07-3a3.61,3.61,0,0,1,3.06-2.43,5.54,5.54,0,0,1,1.35,0,10.15,10.15,0,0,1,1,.39c.6.23.74.87,1.33,1.12a1.09,1.09,0,0,0,.83.08,5.41,5.41,0,0,0,.76-.48,5.09,5.09,0,0,1,1.47-.7A6,6,0,0,1,58.65,36a2.42,2.42,0,0,1,2.45,1.88A4.35,4.35,0,0,1,60.55,40.9Z"/><path class="cls-2" d="M29.4,14.91a1.7,1.7,0,0,0-1.17-1.26,1.48,1.48,0,0,0-1.11.14,1.87,1.87,0,0,0-.61.61l0,0,0,.05a.59.59,0,0,1,0,.08c-3.71,1.55-7,4.09-7.13,8.46A22.3,22.3,0,0,0,20.56,30a33.24,33.24,0,0,0,2.68,6.74c.63,1.13,2.35.12,1.73-1a28.51,28.51,0,0,1-2.27-5.55,27.36,27.36,0,0,1-1.4-6A6.38,6.38,0,0,1,23,19,10.72,10.72,0,0,1,26,16.92,1.35,1.35,0,0,0,27,18.05a1.77,1.77,0,0,0,1.46-.22,2.8,2.8,0,0,0,.6-.59,2.3,2.3,0,0,0,.25-.46,2.32,2.32,0,0,0,.16-.51A3.12,3.12,0,0,0,29.4,14.91Z"/><path class="cls-2" d="M34.94,14.91a1.71,1.71,0,0,1,1.18-1.26,1.46,1.46,0,0,1,1.1.14,1.78,1.78,0,0,1,.61.61l0,0,0,.05a.2.2,0,0,1,0,.08c3.72,1.55,7,4.09,7.13,8.46A22.29,22.29,0,0,1,43.79,30a32.7,32.7,0,0,1-2.69,6.74c-.62,1.13-2.35.12-1.72-1a29.15,29.15,0,0,0,2.27-5.55,27.36,27.36,0,0,0,1.4-6A6.42,6.42,0,0,0,41.38,19a10.54,10.54,0,0,0-3.05-2.09,2,2,0,0,1-.1.35,1.37,1.37,0,0,1-.85.78,1.67,1.67,0,0,1-.86,0,1.62,1.62,0,0,1-.59-.25,2.41,2.41,0,0,1-.6-.59,2.3,2.3,0,0,1-.25-.46,2.32,2.32,0,0,1-.16-.51A3.28,3.28,0,0,1,34.94,14.91Z"/><path class="cls-3" d="M58.8,36.25c-1.31-.29-2.58.45-3.69,1.09a1,1,0,0,1-1.74.07c-.79-1.27-2.45-1.27-3.71-.81a2.14,2.14,0,0,0-1.48,2.79c.4,1.41,1.71,2.38,2.8,3.25l3.76,3,3.2-2.8c1.06-.92,2.57-2,2.79-3.48A3,3,0,0,0,58.8,36.25Z"/><path class="cls-4" d="M62.68,38.33a4.82,4.82,0,0,0-3.35-4,7.05,7.05,0,0,0-5,1.17,5,5,0,0,0-4.45-1,4.38,4.38,0,0,0-3.8,3.84,6.27,6.27,0,0,0,2.55,5c1.61,1.39,3.33,2.66,5,4a.52.52,0,0,0,0,.18,53.73,53.73,0,0,1,0,8q-.06.51-.15,1a11.82,11.82,0,0,1-1.78,4.57,7.46,7.46,0,0,1-4.3,3.15A14.6,14.6,0,0,1,41,63.94a8.49,8.49,0,0,1-5.08-3,12.4,12.4,0,0,1-2-5.08A53.7,53.7,0,0,1,33,42.93a10.66,10.66,0,0,0,7.86-5.83c.6-1.14-1.13-2.15-1.73-1C37.72,38.78,35.17,41,32,41c-3.53,0-5.47-2.65-7.15-5.37-.68-1.09-2.41-.09-1.73,1a17.44,17.44,0,0,0,3.52,4.48A8.23,8.23,0,0,0,31,43a61.15,61.15,0,0,0,.71,11.62c.48,3.38,1.4,7,4.19,9.19s6.5,2.74,9.87,2.63a9.54,9.54,0,0,0,8.14-5.27,16.35,16.35,0,0,0,1.69-6.4,65.23,65.23,0,0,0,0-7.13v-.07c1.57-1.37,3.17-2.73,4.72-4.13S63,40.39,62.68,38.33Zm-2,1c-.22,1.5-1.73,2.56-2.79,3.48l-3.2,2.8-3.76-3c-1.09-.87-2.4-1.84-2.8-3.25a2.14,2.14,0,0,1,1.48-2.79,3.16,3.16,0,0,1,3.25.31c.22.2.44.48.66.68a.9.9,0,0,0,.78.27,1.33,1.33,0,0,0,.49-.21,6.18,6.18,0,0,1,.76-.59,9.18,9.18,0,0,1,1-.5,3.75,3.75,0,0,1,2.21-.31A3,3,0,0,1,60.73,39.33Z"/><rect class="cls-3" width="80" height="80"/></g></svg>