<svg id="Layer_1" data-name="Layer 1" xmlns="http://www.w3.org/2000/svg" viewBox="0 0 500 500"><defs><style>.cls-1{fill:#fbba0e;}.cls-2{fill:#444;}</style></defs><title>individual-health-insurance-illus</title><path class="cls-1" d="M373.88,341.54c.44-3.09,2.68-6.1,3.49-9.28,1.12-4.34,2.44-8.79,2.59-13.3.2-6.22-1.93-12.16-4.87-17.55-2.45-4.5-5-9.09-8.59-12.77C361.44,283.49,357,282,356.26,274c-.49-5-3.25-8.54-6.2-12.35-2.56-3.33-5.38-6.69-8.94-9-2.36-1.54-5.18-2.12-7.61-3.52a15.43,15.43,0,0,1-4.68-4.8,17.88,17.88,0,0,0-5.12-4.63,88.52,88.52,0,0,0-12-7.13A45.39,45.39,0,0,0,301.32,229c-3.72-.76-7,0-10.74.22-2.51.18-5.24,1.58-7.75.9-1.82-.5-3-2.06-4.25-3.31-10.32-10-28.59-11.73-41.44-6.63-8.21,3.26-15.56,9.22-24.36,10-6.14.53-12.36-1.59-18.42-.47-8.48,1.57-12.29,7.54-17.77,13.31-2.74,2.88-4.34,6.15-8.26,7.76-2.71,1.1-5.67,1.31-8.3,2.62a29.25,29.25,0,0,0-9.57,8.31,47.4,47.4,0,0,0-5.81,10.39,4.05,4.05,0,0,1-.31,1.87c-1.71,4-3,8.13-5.16,11.89-2.28,4-6.36,6.13-9.27,9.55a34.32,34.32,0,0,0-7.49,14.19c-1.17,5.32-.35,10.76.62,16.05.45,2.48.58,5.38,1.45,7.92s2.43,4.75,2.53,7.5c.12,3.19-2.1,5.57-2.49,8.64a44.8,44.8,0,0,0,.37,15.54c2.59,10.92,12.67,19.18,23.7,21.25a50,50,0,0,0,13.25,1c4.38-.36,8.49-2.47,13-1.5,3.58.78,5.6,3.59,8.18,5.9A22.53,22.53,0,0,0,193.61,397c4.35.83,8.71-.08,13-.88s8.56-2.91,13.06-2.93a10.18,10.18,0,0,1,6.15,2c3.16,2.11,7.54,2.75,11.29,2.63,5.34-.17,10.52-2.34,15.86-2.06,4.28.23,8.38,2,12.66,2.17,5.94.19,11-2.92,16.6-4.28a15.57,15.57,0,0,1,8.43,0c5.87,1.83,9.69,4.77,16.34,3.74s12.11-6.14,18.53-8.39c7.87-2.76,16.55-1.07,24.83-2.07a33.48,33.48,0,0,0,22.44-12.86,27,27,0,0,0,5.39-15.76C378.15,352.17,373,347.62,373.88,341.54Zm-14.49,14.78a27.71,27.71,0,0,1,2.29-1.79,17.44,17.44,0,0,1,.62,2.08,7.84,7.84,0,0,1-.37,5.44c-1.93,4.09-6.76,7.36-10.89,8.88-5.11,1.88-10.76,1.7-16,.66-3.31-.65-9.1-1.15-11.07-4.29-5.48-8.7-19.35-.72-13.85,8a21.3,21.3,0,0,0,2.43,3.14c-.41.26-.84.51-1.28.74-3.11,1.56-6.69,1.84-10.1,1.84a38.29,38.29,0,0,1-12.23-2.11,9.11,9.11,0,0,0-4.92-3c-.89-.79-1.74-1.65-2.62-2.57-6.22-6.47-15.6,1.2-13.26,8.2-.52-.25-1.58.13-2.16.06-8-.93-15.84,1.75-23.71,1.07-.94-.08-8.2-2.27-8.58-1.13,2.33-7-7-14.67-13.26-8.2-.88.92-1.73,1.78-2.62,2.57a9.07,9.07,0,0,0-4.92,3A38.29,38.29,0,0,1,200.64,381c-3.42,0-7-.28-10.1-1.84-.45-.23-.87-.48-1.28-.74a21.3,21.3,0,0,0,2.43-3.14c5.5-8.74-8.38-16.72-13.85-8-2,3.14-7.76,3.64-11.07,4.29-5.27,1-10.92,1.22-16-.66-4.13-1.52-9-4.79-10.88-8.88a7.79,7.79,0,0,1-.37-5.44,17.44,17.44,0,0,1,.62-2.08c.78.56,1.55,1.14,2.29,1.79,7.67,6.83,19-4.5,11.26-11.36-4.57-4.06-9.28-6.2-12.52-11.61a23.28,23.28,0,0,1-3.5-14.31,41.47,41.47,0,0,1,5.52-16.51,36.56,36.56,0,0,1,3.35-4.59,30.27,30.27,0,0,0,5.07,7.11c7.15,7.44,18.41-3.93,11.27-11.36a11.8,11.8,0,0,1-3-5.58c-1-4.11-1.31-8.25.27-12.25a18.41,18.41,0,0,1,6-7.9c2.7-2,4.79-2,8-1.92a7.09,7.09,0,0,0,6.35-3.16,9.35,9.35,0,0,0,2.38-5.64c.28-3.27,6-7.49,8.56-8.86a29.29,29.29,0,0,1,11.89-3.19c8.07-.57,17.16.38,22.55,7.05,2.72,3.37,8.51,2.79,11.32,0,3.32-3.35,2.68-7.95,0-11.32a26.07,26.07,0,0,0-2.5-2.64c.06-.06.12-.13.19-.19,1.75-1.58,4-2.32,6.18-3.11a27.67,27.67,0,0,1,19.89,0c2.21.79,4.43,1.53,6.18,3.11l.19.19a26.07,26.07,0,0,0-2.5,2.64c-2.73,3.37-3.37,8,0,11.32,2.81,2.83,8.6,3.41,11.31,0,5.4-6.67,14.49-7.62,22.56-7.05a29.29,29.29,0,0,1,11.89,3.19c2.53,1.37,8.28,5.59,8.55,8.86a9.36,9.36,0,0,0,2.39,5.64A7.09,7.09,0,0,0,327.7,266c3.26-.05,5.35,0,8.05,1.92a18.49,18.49,0,0,1,6,7.9c.15.4.29.8.42,1.21a3.72,3.72,0,0,1,.78,1.33,14.32,14.32,0,0,1-1.53,11.75,13.84,13.84,0,0,1-2.45,3.54c-7.14,7.43,4.12,18.8,11.27,11.36a30.57,30.57,0,0,0,5.07-7.11,37.6,37.6,0,0,1,3.35,4.59A41.47,41.47,0,0,1,364.15,319a23.35,23.35,0,0,1-3.5,14.31c-3.25,5.41-8,7.55-12.53,11.61C340.41,351.82,351.72,363.15,359.39,356.32Z"/><path class="cls-2" d="M128.76,258c-.95-.06-3.1-.36-4.5-.51-.79-.09-1.56-.28-2.35-.35-1.52-.13-2.73.35-4.2.43-.91.05-2.22-.16-3.29-.07a14.38,14.38,0,0,0-4.06.94c-.85.34-2.29.61-1.43.62a36.51,36.51,0,0,0-4.78,1.06,38.92,38.92,0,0,0-4.48,1.81c0-.68-.09-1.35-.1-2A196.52,196.52,0,0,0,97.75,238c-2-15.14-4.53-29.65-4.81-44.9l1.43-.38a49.18,49.18,0,0,0,5.78-2,103.68,103.68,0,0,0,11-5.2c8.07-4.48,10.76-10.14,10.81-19.19,0-7,0-15-3.88-21.09a26.78,26.78,0,0,0-7.4-7.74c1.83-14.15-3-29.87-18.42-33.92-3.68-1-7.93-1.25-11.54.07a10.56,10.56,0,0,1-7,.38c-8.14-2-14.9-3.11-23,0-3.18,1.22-6.07,3-9.27,4.2-3.43,1.23-7,.47-10.61,1.18-4,.81-6.23,3.12-9.51,5.29a54.48,54.48,0,0,0-8.51,6.8C.27,133.94,4.78,153.28,7.3,168.65c1.44,8.74,3.39,16.8,9.2,23.76,2.4,2.89,5.42,4.61,8.43,6.75,1.38,1,2.69,1.91,4,2.69a185.57,185.57,0,0,1-1.17,23.29c-1.08,8.75-1.84,17.52-3.08,26.25-1.31,9.28-2.85,18.53-3.76,27.86s-.65,18.95-.66,28.42c0,15.67-.13,35.64,14.28,45.28,7.09,4.73,15.66,1.77,23.61,2,4.16.14,8.19,1.08,12.32,1.53,4.36.47,8.74.62,13.11,1.14,7.26.88,14.71,1.5,22,.65,3.77-.44,16.12-3.56,12.15-10.72l-.07-.14c-4.3-7.55-11.76-5.54-19.06-5.34-1.56,0-3.13.54-4.66.57-1.22,0-3.38-.47-5-.55a220.6,220.6,0,0,1-22.51-2.3,72.56,72.56,0,0,0-11-.87c-3.84,0-7.92,1.18-11.73.66l-.51-.06a7.35,7.35,0,0,1-.95-.68,8.63,8.63,0,0,1-2.5-2.92,29.37,29.37,0,0,1-2.32-9.29,238.77,238.77,0,0,1-1.11-24.8c0-16.67,2-32.6,4.27-49.07,1.26-9.08,2-18.2,3.2-27.28A193.8,193.8,0,0,0,45,198.57a8.41,8.41,0,0,0-.3-2.2c.24-4.19-2.34-8.48-7.73-8.32.78.62.55.52-.71-.3a13.12,13.12,0,0,1-1.6-1.17c-1.2-.89-2.41-1.73-3.62-2.58a15.54,15.54,0,0,1-5.46-6.91c-2.55-6-3.14-13.58-4.14-20-1.07-6.86-2.47-15.43.94-21.91a19.85,19.85,0,0,1,5.75-6c2.3-1.66,4.93-4,7.68-4.26,3.77-.34,7.08-.2,10.74-1.57,3.11-1.17,6-2.86,9-4.1,7.16-2.89,12.6.5,19.82,1.14a22.54,22.54,0,0,0,8.83-.89A28.32,28.32,0,0,0,87,118.27c-.87.5-.79.67.25.52a11.49,11.49,0,0,1,4.11,1.7c3.4,2.52,4.2,8.14,3.89,12.43-5.9-.13-11.56,1-17.48,2.19-3.69.78-7.33,1.33-10.29,3.84a22.07,22.07,0,0,0-6.48,9.4,18.34,18.34,0,0,0-.59,9.22,6.58,6.58,0,0,0-3.82,4.11h-.05c-.55.06-1.06.42-1.62.47-1.11.1-3.79-.85-6-.54-1.9.28-4.42,1-5.76,2.47a.35.35,0,0,0-.08.1L42,163.62c-4-1.67-8.57-1.16-10.93,2.91C29.1,169.9,30,175.78,34,177.47c3.52,1.47,6.56,3.28,10.54,3.09a12.73,12.73,0,0,0,6-2c.07,0,.55-.39,1-.72.26.06.57.13,1,.2,6.07,1.07,14.5-2,17.94-7.67,6.21,2.31,14.57,1.52,20.53,1.05,10.14-.81,10.36-16-.06-16h-.34a9.13,9.13,0,0,0-1.51.13,67.24,67.24,0,0,1-12.44-.19h-.21a5.56,5.56,0,0,1-.34-1.5c.1-.86,1.64-2.32,1.7-2.36,1.83-.93,4.82-1,6.8-1.43a35.71,35.71,0,0,1,5.84-1.16c3.73-.2,8.64-.55,11.69,2s3.55,5.34,3.88,9.1c.19,2.11.1,4.27.09,6.39,0,.69.25,2.81-.11,3.62-.09.07-.19.15-.32.27-3.3,2.86-8.85,4.9-12.94,6.26-5.06,1.67-9.8,1.95-13.9,5.73a6.88,6.88,0,0,0-1.81,8.3c0,15.1,2,29.46,4.39,44.34,1,6.55,1.18,13.09,1.72,19.66a144.73,144.73,0,0,1,.51,17.16,8.41,8.41,0,0,0,5,8.28,7.8,7.8,0,0,0,6.94,0c3.94-.92,7.55-2.58,11.47-3.95a33.15,33.15,0,0,1,4.5-1.18,14.19,14.19,0,0,0,1.58-.3c2.73-.47,5.49-.79,8.24-1.38l.14,0c2.47.38,4.93.67,7.43.84,4.32.29,8-3.93,8-8C136.77,261.33,133.08,258.24,128.76,258Z"/><path class="cls-2" d="M371.24,258c.95-.06,3.1-.36,4.5-.51.79-.09,1.56-.28,2.35-.35,1.52-.13,2.73.35,4.2.43.91.05,2.22-.16,3.29-.07a14.38,14.38,0,0,1,4.06.94c.85.34,2.29.61,1.43.62a36.51,36.51,0,0,1,4.78,1.06,38.92,38.92,0,0,1,4.48,1.81c.05-.68.09-1.35.1-2A196.52,196.52,0,0,1,402.25,238c2-15.14,4.53-29.65,4.81-44.9l-1.43-.38a49.18,49.18,0,0,1-5.78-2,103.68,103.68,0,0,1-11-5.2c-8.07-4.48-10.76-10.14-10.81-19.19,0-7,0-15,3.88-21.09a26.78,26.78,0,0,1,7.4-7.74c-1.83-14.15,3-29.87,18.42-33.92,3.68-1,7.93-1.25,11.54.07a10.56,10.56,0,0,0,7,.38c8.14-2,14.9-3.11,23,0,3.18,1.22,6.07,3,9.27,4.2,3.43,1.23,7.05.47,10.61,1.18,4,.81,6.23,3.12,9.51,5.29a54.48,54.48,0,0,1,8.51,6.8c12.58,12.44,8.07,31.78,5.55,47.15-1.44,8.74-3.39,16.8-9.2,23.76-2.4,2.89-5.42,4.61-8.43,6.75-1.38,1-2.69,1.91-4,2.69a185.57,185.57,0,0,0,1.17,23.29c1.08,8.75,1.84,17.52,3.08,26.25,1.31,9.28,2.85,18.53,3.76,27.86s.65,18.95.66,28.42c0,15.67.13,35.64-14.28,45.28-7.09,4.73-15.66,1.77-23.61,2-4.16.14-8.19,1.08-12.32,1.53-4.36.47-8.74.62-13.11,1.14-7.26.88-14.71,1.5-22,.65-3.77-.44-16.12-3.56-12.15-10.72l.07-.14c4.3-7.55,11.76-5.54,19.06-5.34,1.56,0,3.13.54,4.66.57,1.22,0,3.38-.47,5-.55a220.6,220.6,0,0,0,22.51-2.3,72.56,72.56,0,0,1,11-.87c3.84,0,7.92,1.18,11.73.66l.51-.06a7.35,7.35,0,0,0,1-.68,8.63,8.63,0,0,0,2.5-2.92,29.37,29.37,0,0,0,2.32-9.29,238.77,238.77,0,0,0,1.11-24.8c0-16.67-2-32.6-4.27-49.07-1.26-9.08-2-18.2-3.2-27.28a193.8,193.8,0,0,1-1.2-26.94,8.41,8.41,0,0,1,.3-2.2c-.24-4.19,2.34-8.48,7.73-8.32-.78.62-.55.52.71-.3a13.12,13.12,0,0,0,1.6-1.17c1.2-.89,2.41-1.73,3.62-2.58a15.54,15.54,0,0,0,5.46-6.91c2.55-6,3.14-13.58,4.14-20,1.07-6.86,2.47-15.43-.94-21.91a19.85,19.85,0,0,0-5.75-6c-2.3-1.66-4.93-4-7.68-4.26-3.77-.34-7.08-.2-10.74-1.57-3.11-1.17-6-2.86-9.05-4.1-7.16-2.89-12.6.5-19.82,1.14a22.54,22.54,0,0,1-8.83-.89,28.32,28.32,0,0,1-2.81-1.26c.87.5.79.67-.25.52a11.49,11.49,0,0,0-4.11,1.7c-3.4,2.52-4.2,8.14-3.89,12.43,5.9-.13,11.56,1,17.48,2.19,3.69.78,7.33,1.33,10.29,3.84a22.07,22.07,0,0,1,6.48,9.4,18.34,18.34,0,0,1,.59,9.22,6.58,6.58,0,0,1,3.82,4.11h.05c.55.06,1.06.42,1.62.47,1.11.1,3.79-.85,6-.54,1.9.28,4.42,1,5.76,2.47a.35.35,0,0,1,.08.1l1.15-.57c4-1.67,8.57-1.16,10.93,2.91,1.95,3.37,1.09,9.25-2.91,10.94-3.52,1.47-6.56,3.28-10.54,3.09a12.73,12.73,0,0,1-5.95-2c-.07,0-.55-.39-1-.72-.26.06-.57.13-1,.2-6.07,1.07-14.5-2-17.94-7.67-6.21,2.31-14.57,1.52-20.53,1.05-10.14-.81-10.36-16,.06-16h.34a9.13,9.13,0,0,1,1.51.13,67.24,67.24,0,0,0,12.44-.19h.21a5.56,5.56,0,0,0,.34-1.5c-.1-.86-1.64-2.32-1.7-2.36-1.83-.93-4.82-1-6.8-1.43a35.71,35.71,0,0,0-5.84-1.16c-3.73-.2-8.64-.55-11.69,2s-3.55,5.34-3.88,9.1c-.19,2.11-.1,4.27-.09,6.39,0,.69-.25,2.81.11,3.62.09.07.19.15.32.27,3.3,2.86,8.85,4.9,12.94,6.26,5.06,1.67,9.8,1.95,13.9,5.73a6.88,6.88,0,0,1,1.81,8.3c0,15.1-2,29.46-4.39,44.34-1,6.55-1.18,13.09-1.72,19.66a144.73,144.73,0,0,0-.51,17.16,8.41,8.41,0,0,1-5,8.28,7.8,7.8,0,0,1-6.94,0c-3.94-.92-7.55-2.58-11.47-3.95a33.15,33.15,0,0,0-4.5-1.18,14.19,14.19,0,0,1-1.58-.3c-2.73-.47-5.49-.79-8.24-1.38l-.14,0c-2.47.38-4.93.67-7.43.84-4.32.29-8-3.93-8-8C363.23,261.33,366.92,258.24,371.24,258Z"/></svg>