<svg xmlns="http://www.w3.org/2000/svg" width="54" height="54" fill="none" xmlns:v="https://vecta.io/nano"><style><![CDATA[.B{stroke-linejoin:round}.C{fill:#fff}.D{stroke:#454545}.E{stroke-width:1.5}.F{stroke-linecap:round}]]></style><g clip-path="url(#A)"><g class="C"><path d="M9.955 21.168H38.7l4.636 9.179H4.523l5.431-9.179z"/><use href="#B"/></g><use href="#B" class="B D E F"/><use href="#C" class="C"/><use href="#C" class="B D E F"/><use href="#D" class="C"/><use href="#D" class="B D E F"/><use href="#E" class="C"/><g class="B D E F"><use href="#E"/><path d="M7.367 34.391h4.561"/></g><use href="#F" class="C"/><g class="B D E"><use href="#F"/><g class="F"><path d="M16.211 39.936v-5.549h10.312m15.196.004h-4.561"/></g></g><use href="#G" class="C"/><g class="B D E"><use href="#G"/><path d="M32.875 39.936v-5.549H22.563" class="F"/></g><g stroke="#fff" stroke-width="6" class="B"><use href="#H" class="C"/><g fill="#b6d9f2"><use href="#I"/></g></g><g class="D E B"><use href="#H" fill="#b6d9f2"/><use href="#I" class="C"/></g></g><defs><clipPath id="A"><path d="M0 0h54v54H0z" class="C"/></clipPath><path id="B" d="M2 28.421v-3.107c0-.622.502-1.127 1.122-1.127h3.114a3.8 3.8 0 0 1 2.699 1.124l3.094 3.11H36.46"/><path id="C" d="M47.086 28.421v-3.107c0-.622-.502-1.127-1.122-1.127H42.85a3.8 3.8 0 0 0-2.699 1.124l-3.094 3.11H12.626"/><path id="D" d="M39.252 22.121l-1.868-4.383c-.567-1.329-1.868-2.191-3.307-2.191H14.555c-1.439 0-2.744.862-3.307 2.191l-1.868 4.383"/><path id="E" d="M42.481 29.172l1.349 1.952a7.67 7.67 0 0 1 1.358 4.358v7.487c0 .868-.699 1.572-1.565 1.572H4.116c-.864 0-1.565-.701-1.565-1.572v-7.487c0-1.558.474-3.079 1.358-4.358l1.349-1.952"/><path id="F" d="M14.326 46.785v3.622c0 .755-.611 1.366-1.36 1.366H6.763c-.752 0-1.361-.614-1.361-1.366v-3.622"/><path id="G" d="M34.76 46.785v3.622c0 .755.611 1.366 1.361 1.366h6.202c.752 0 1.361-.614 1.361-1.366v-3.622"/><path id="H" d="M51.822 10.29c.184-.158.235-.461.113-.668l-1.773-3.035c-.121-.209-.411-.316-.642-.238l-2.975.959a1.01 1.01 0 0 1-.793-.111l-1.959-1.119a.99.99 0 0 1-.494-.623l-.654-3.025c-.047-.236-.285-.43-.53-.43h-3.535c-.243 0-.482.195-.53.432l-.652 3.023c-.049.238-.271.519-.494.621l-1.961 1.119a1 1 0 0 1-.793.111l-2.975-.955a.57.57 0 0 0-.645.238L28.76 9.616c-.123.209-.071.51.113.67l2.325 2.07a.98.98 0 0 1 .298.734v2.236a.97.97 0 0 1-.296.732l-2.329 2.066c-.184.16-.235.461-.113.67l1.773 3.035a.57.57 0 0 0 .642.238l2.973-.957a1.01 1.01 0 0 1 .793.111l1.959 1.119c.223.104.445.383.494.623l.654 3.025c.047.236.287.43.53.43h3.535c.245 0 .484-.195.53-.432l.654-3.023a.99.99 0 0 1 .494-.623l1.961-1.117a1 1 0 0 1 .793-.111l2.975.955a.57.57 0 0 0 .642-.238l1.771-3.029a.55.55 0 0 0-.111-.668l-2.327-2.07c-.186-.162-.32-.49-.299-.734v-2.236a.97.97 0 0 1 .297-.732l2.327-2.068.002-.002z"/><path id="I" d="M43.674 17.296a4.49 4.49 0 1 0-6.35-6.35 4.49 4.49 0 1 0 6.35 6.35z"/></defs></svg>