<svg xmlns="http://www.w3.org/2000/svg" width="80" height="80" viewBox="0 0 80 80"><defs><style>.cls-1{fill:#fb0;}.cls-2{fill:#fff;}.cls-3{fill:#444;}.cls-4{fill:none;}</style></defs><title>portability</title><g id="Layer_17" data-name="Layer 17"><path class="cls-1" d="M67.36,32.8a1,1,0,0,0-1.35,0A24.76,24.76,0,0,1,63.88,35c-.29.27-.62.56-.94.83,0-.32,0-.64,0-1a21.3,21.3,0,0,0-2.84-8.95,21.48,21.48,0,0,0-3.44-4.81,16.84,16.84,0,0,0-7.74-4.42,23.52,23.52,0,0,0-9.67.21,24.24,24.24,0,0,0-8,3.45c-.33.22-.66.43-1,.66-1,.73,0,2.27.95,1.55A22.23,22.23,0,0,1,41,18.4c2.93-.43,6.17-.67,9,.48A17.32,17.32,0,0,1,55.2,22.4a21.32,21.32,0,0,1,3.16,4.44A20.74,20.74,0,0,1,61,36.28l-.58-.54a12.1,12.1,0,0,1-1.05-1c-.67-.73-1.62-1.27-2.29-2-.86-.82-2.2.45-1.34,1.27a15.72,15.72,0,0,0,1.53,1.18c.48.36.86.91,1.34,1.27s.93.83,1.45,1.15a9.29,9.29,0,0,0,1.31.82,1.37,1.37,0,0,0,1.5-.22c.56-.41,1.11-.84,1.64-1.29a25.12,25.12,0,0,0,2.81-2.84A.89.89,0,0,0,67.36,32.8Z"/><path class="cls-2" d="M47.48,30.65a2.57,2.57,0,0,0-2.39-1.09c-1.14.2-2.36,1.17-3.45,1.56A21.29,21.29,0,0,0,39,32.65a26.75,26.75,0,0,1-4.46,1.86,21.87,21.87,0,0,1-3.83.86c-.89.11-2,.18-2.61-.61-.22-.28,0-.62.3-.73,2-.82,4.09-1.2,5.95-2.25a.37.37,0,0,1,.12-.13c.74-.4,2-1.67,1.42-2.59-.38-.64-1.46-.67-2.1-.69-.86,0-1.71,0-2.57-.08-1.39-.11-2.77-.28-4.15-.38A14.45,14.45,0,0,0,19.41,29,63.92,63.92,0,0,0,13,32.82c-2.19,1.39-3.54,2-5.68,3.46a5.78,5.78,0,0,0,.52,3.29,8.34,8.34,0,0,0,1.49,2.5c1,1.11,2.51,2.43,4,2.62a12.65,12.65,0,0,0,1.87-.44c.42,0,.46-.25.88-.33.83-.17,1.65-.39,2.47-.59a3.92,3.92,0,0,0,.66-.15,2.93,2.93,0,0,0,.57-.13l.59-.13,1.09-.23c.93-.19,1.86-.35,2.8-.47.16,0,.33,0,.5-.06,2-.45,4-.56,6-1,3.89-.89,6-1.36,9.43-3.58a45.65,45.65,0,0,0,4.33-2.93,12,12,0,0,0,2.11-1.76c.28-.42.94-.92,1-1.42A1.18,1.18,0,0,0,47.48,30.65Z"/><path class="cls-3" d="M35.79,27.41c-1.29-.61-3.09-.21-4.46-.19-1.81,0-3.63-.2-5.44-.08a48.67,48.67,0,0,0-5.08.55,11.07,11.07,0,0,0-4.31,2.08c-3.32,2.24-6.73,4.3-10,6.62-1,.66,0,2.18.94,1.53,3-2.05,6.19-3.93,9.24-6.07a12.49,12.49,0,0,1,4.49-2.35,28.87,28.87,0,0,1,5.62-.56c.91,0,1.82.15,2.72.13L32.46,29A7.51,7.51,0,0,1,34.91,29c.91.44.21,1.9-.42,2.28A6.63,6.63,0,0,1,32.6,32c-.67.17-1.33.39-2,.52-.39.07-.82.17-1.21.2l-.12,0A26.22,26.22,0,0,0,24,34.07c-1.08.48-.6,2.19.48,1.72a22.22,22.22,0,0,1,4.67-1.32c.49-.1,1-.18,1.48-.27,1-.18,1.92-.42,2.87-.68a5.2,5.2,0,0,0,2.26-1.33A3.6,3.6,0,0,0,37,29.6,2.33,2.33,0,0,0,35.79,27.41Z"/><path class="cls-3" d="M48,30.16a3,3,0,0,0-3.82-1.5,41,41,0,0,0-5.61,3A14.85,14.85,0,0,1,31.8,34c-2.46.12-4.93-.18-7.4-.06-1.28.06-1.29,2.06,0,2,4.52-.21,9,.74,13.2-1.45,2.18-1.14,4.28-2.44,6.46-3.58.5-.26,1.13-.7,1.7-.38.9.5.29,1.37-.23,1.84a32.31,32.31,0,0,1-2.89,2.15,60.11,60.11,0,0,1-6,3.75,25.64,25.64,0,0,1-6.88,2L14.58,43.61c-1.25.28-.72,2.21.54,1.93l13.8-3a58.27,58.27,0,0,0,6.4-1.5,26.47,26.47,0,0,0,5.46-2.9q2.82-1.78,5.46-3.83C47.57,33.31,48.76,31.94,48,30.16Z"/><path class="cls-2" d="M32.52,48.78a2.57,2.57,0,0,1,2.39-1.09c1.14.2,2.36,1.17,3.45,1.56A21.29,21.29,0,0,1,41,50.78a26.75,26.75,0,0,0,4.46,1.86,21.87,21.87,0,0,0,3.83.86c.89.11,2,.18,2.61-.61.22-.28,0-.62-.3-.73-2-.82-4.09-1.2-5.95-2.25a.28.28,0,0,0-.12-.12c-.74-.4-2-1.67-1.42-2.6.38-.64,1.46-.66,2.1-.69.86,0,1.71,0,2.57-.08,1.39-.11,2.77-.28,4.15-.38a14.45,14.45,0,0,1,7.64,1.1A63.92,63.92,0,0,1,67,51c2.19,1.39,3.54,2,5.68,3.46a5.78,5.78,0,0,1-.52,3.29,8.1,8.1,0,0,1-1.49,2.5c-1,1.11-2.51,2.43-4,2.62a12.61,12.61,0,0,1-1.87-.43c-.42,0-.46-.26-.88-.34-.83-.17-1.65-.39-2.47-.59a3.92,3.92,0,0,1-.66-.15,2.93,2.93,0,0,1-.57-.13l-.59-.13-1.09-.23c-.93-.18-1.86-.34-2.8-.47-.16,0-.33,0-.5-.06-2-.45-4-.56-6-1-3.89-.89-6-1.36-9.43-3.58a45.65,45.65,0,0,1-4.33-2.93A11.6,11.6,0,0,1,33.42,51c-.28-.42-.94-.91-1-1.42A1.19,1.19,0,0,1,32.52,48.78Z"/><path class="cls-3" d="M44.21,45.54c1.29-.61,3.09-.21,4.46-.19,1.81,0,3.63-.2,5.44-.08,1.63.13,3.45.25,5.08.55A11.21,11.21,0,0,1,63.5,47.9c3.32,2.24,6.73,4.3,10,6.63,1,.65.05,2.18-.94,1.52-3-2-6.19-3.92-9.24-6.07a12.49,12.49,0,0,0-4.49-2.35,29.67,29.67,0,0,0-5.62-.56c-.91,0-1.82.15-2.72.13l-2.91-.05a7.51,7.51,0,0,0-2.45,0c-.91.44-.21,1.91.42,2.28a6.63,6.63,0,0,0,1.89.71c.67.17,1.33.39,2,.52.39.07.82.17,1.21.2l.12,0A25.58,25.58,0,0,1,56,52.21c1.08.47.6,2.19-.48,1.71a22.22,22.22,0,0,0-4.67-1.32c-.49-.1-1-.18-1.48-.27-1-.18-1.92-.42-2.87-.68a5.2,5.2,0,0,1-2.26-1.33A3.6,3.6,0,0,1,43,47.73,2.33,2.33,0,0,1,44.21,45.54Z"/><path class="cls-3" d="M32,48.3a3,3,0,0,1,3.82-1.51,41,41,0,0,1,5.61,3,14.85,14.85,0,0,0,6.75,2.32c2.46.12,4.93-.17,7.4-.06,1.28.06,1.29,2.06,0,2-4.52-.21-9,.74-13.2-1.45-2.18-1.14-4.28-2.44-6.46-3.58-.5-.25-1.13-.69-1.7-.38-.9.5-.29,1.37.23,1.84a28.86,28.86,0,0,0,2.89,2.15,60.11,60.11,0,0,0,6,3.75,25.28,25.28,0,0,0,6.88,2.05l15.23,3.3c1.25.27.72,2.2-.54,1.93l-13.8-3a56.07,56.07,0,0,1-6.4-1.5,26.47,26.47,0,0,1-5.46-2.9q-2.82-1.78-5.46-3.83C32.43,51.44,31.24,50.08,32,48.3Z"/><rect class="cls-4" width="80" height="80"/></g></svg>