<svg width="69" height="68" viewBox="0 0 69 68" fill="none" xmlns="http://www.w3.org/2000/svg">
<path d="M44.8745 5.66992H3.5168C2.7395 5.66992 2.10938 6.30011 2.10938 7.07741V62.8146C2.10938 63.5919 2.7395 64.222 3.5168 64.222H44.8745C45.6518 64.222 46.2819 63.5919 46.2819 62.8146V7.07741C46.2819 6.30011 45.6518 5.66992 44.8745 5.66992Z" fill="white" stroke="white" stroke-width="1.5" stroke-linecap="round" stroke-linejoin="round"/>
<path d="M46.2855 41.7494V62.7388C46.2855 63.5574 45.6213 64.2216 44.8027 64.2216H3.59221C2.7736 64.2216 2.10938 63.5574 2.10938 62.7388V7.1488C2.10938 6.3302 2.7736 5.66602 3.59221 5.66602H44.8027C45.6213 5.66602 46.2855 6.3302 46.2855 7.1488V21.2985" stroke="#454545" stroke-width="1.5" stroke-linecap="round" stroke-linejoin="round"/>
<path d="M12.8359 17.8359H35.1215" stroke="#454545" stroke-width="1.5" stroke-linecap="round" stroke-linejoin="round"/>
<path d="M35.1215 29.2422H12.8359" stroke="#454545" stroke-width="1.5" stroke-linecap="round" stroke-linejoin="round"/>
<path d="M24.4796 40.6484H12.8359" stroke="#454545" stroke-width="1.5" stroke-linecap="round" stroke-linejoin="round"/>
<path d="M64.1418 18.7923L59.0506 13.7012L27.7353 45.0165C26.3278 46.4239 26.3278 48.7038 27.7353 50.1077C29.1427 51.5115 31.4226 51.5151 32.8264 50.1077L61.5818 21.3523L64.1454 18.7887L64.1418 18.7923Z" fill="#B6D9F2" stroke="#B6D9F2" stroke-width="1.5" stroke-linecap="round" stroke-linejoin="round"/>
<path d="M64.1383 18.793L66.6372 21.2919C67.0968 21.7514 67.0968 22.4983 66.6372 22.9579L57.1406 32.4544" stroke="#454545" stroke-width="1.5" stroke-linecap="round" stroke-linejoin="round"/>
<path d="M64.1418 18.7923L59.0506 13.7012L27.7353 45.0165C26.3278 46.4239 26.3278 48.7038 27.7353 50.1077C29.1427 51.5115 31.4226 51.5151 32.8264 50.1077L61.5818 21.3523" stroke="#454545" stroke-width="1.5" stroke-linejoin="round"/>
<path d="M25.7967 52.0332L24.6406 53.1893" stroke="#454545" stroke-width="1.5" stroke-linejoin="round"/>
<path d="M24.6472 53.1875L22.9453 54.8893" stroke="#454545" stroke-width="1.5" stroke-linecap="round" stroke-linejoin="round"/>
</svg>
