<svg xmlns="http://www.w3.org/2000/svg" viewBox="0 0 80 80"><defs><style>.cls-1,.cls-4{fill:#fff;}.cls-2{fill:#444;}.cls-3{fill:#fb0;}.cls-4{opacity:0;}</style></defs><g id="Layer_17" data-name="Layer 17"><path class="cls-1" d="M60.74,33.9A5,5,0,0,0,57.83,33c-2.17-.15-3.9,1.47-6,1.68l-.06,0a7.59,7.59,0,0,0-4.57-1.46c-1.57,0-3.48.54-4.33,2a6,6,0,0,0-.24,5.29c.8,1.56,2.83,2.75,4.1,4a23.84,23.84,0,0,0,4.36,3.24,2.72,2.72,0,0,0,1,.45,1.64,1.64,0,0,0,1.16-.38c.85-.53,1.68-1.09,2.47-1.7,3-2.29,6.49-4.9,6.6-8.85A6.32,6.32,0,0,0,60.74,33.9Z"/><path class="cls-2" d="M35.22,13.79c.14.07.07.07,0,0Z"/><path class="cls-2" d="M27,14.48a1.73,1.73,0,0,0-1.18-1.27,1.56,1.56,0,0,0-1.1.14,1.9,1.9,0,0,0-.61.62l0,0s0,0,0,0a.36.36,0,0,0,0,.09c-3.72,1.54-7,4.08-7.13,8.45a22.64,22.64,0,0,0,1.28,7,33.5,33.5,0,0,0,2.69,6.74c.62,1.12,2.35.12,1.73-1a28.38,28.38,0,0,1-2.28-5.56,27.23,27.23,0,0,1-1.4-6,6.41,6.41,0,0,1,1.67-5.11,10.54,10.54,0,0,1,3.05-2.09,2,2,0,0,0,.1.35,1.37,1.37,0,0,0,.85.78,1.67,1.67,0,0,0,.86,0,1.48,1.48,0,0,0,.59-.26,2.11,2.11,0,0,0,.6-.59,1.86,1.86,0,0,0,.25-.46,2.24,2.24,0,0,0,.16-.5A3.28,3.28,0,0,0,27,14.48Z"/><path class="cls-2" d="M32.5,14.48a1.71,1.71,0,0,1,1.17-1.27,1.58,1.58,0,0,1,1.11.14,2,2,0,0,1,.61.62l0,0s0,0,0,0a.36.36,0,0,0,0,.09c3.71,1.54,7,4.08,7.13,8.45a22.36,22.36,0,0,1-1.29,7,33.47,33.47,0,0,1-2.68,6.74,1,1,0,0,1-1.73-1,28.35,28.35,0,0,0,2.27-5.56,27.23,27.23,0,0,0,1.4-6,6.37,6.37,0,0,0-1.66-5.11,10.72,10.72,0,0,0-3.06-2.09,1.35,1.35,0,0,1-.94,1.13,1.67,1.67,0,0,1-.86,0,1.53,1.53,0,0,1-.6-.26,2.4,2.4,0,0,1-.6-.59,1.55,1.55,0,0,1-.24-.46,1.85,1.85,0,0,1-.17-.5A3.28,3.28,0,0,1,32.5,14.48Z"/><path class="cls-3" d="M52.6,47.4c-.47,0-1,0-1.44,0a49.22,49.22,0,0,1,0,7.58c0,.34-.1.69-.16,1a11.67,11.67,0,0,1-1.78,4.57,7.38,7.38,0,0,1-4.29,3.14,14.5,14.5,0,0,1-6.35-.25,8.51,8.51,0,0,1-5.07-3,12.31,12.31,0,0,1-2-5.07,52.73,52.73,0,0,1-.93-12.91,10.67,10.67,0,0,0,7.86-5.84c.59-1.14-1.13-2.15-1.73-1-1.42,2.7-4,4.88-7.14,4.92-3.53,0-5.46-2.66-7.14-5.37-.68-1.09-2.41-.09-1.73,1a17.36,17.36,0,0,0,3.51,4.48,8.38,8.38,0,0,0,4.37,1.83,61.14,61.14,0,0,0,.7,11.62c.48,3.37,1.41,7,4.19,9.19S40,66.07,43.32,66a9.52,9.52,0,0,0,8.14-5.26,16.54,16.54,0,0,0,1.7-6.4,62.79,62.79,0,0,0,0-6.86Z"/><path class="cls-3" d="M59.32,32.39c-2.44-.94-5-.21-7.25,1-2.21-1.21-4.8-1.94-7.25-1A6.15,6.15,0,0,0,41,37.65c-.19,2.44,1.36,4.54,3.13,6,2.23,1.9,4.73,3.51,7.1,5.22a.82.82,0,0,0,.82.12.84.84,0,0,0,.83-.12c2.37-1.71,4.87-3.32,7.09-5.22,1.77-1.5,3.32-3.6,3.13-6A6.13,6.13,0,0,0,59.32,32.39Zm1.8,6c-.22,1.89-1.82,3.32-3.24,4.41C56,44.3,54,45.66,52.07,47.05c-1.94-1.39-3.91-2.75-5.8-4.2-1.42-1.09-3-2.52-3.24-4.41a4.11,4.11,0,0,1,2.32-4.11c1.86-.84,3.91-.19,5.63.74a1.4,1.4,0,0,0,1.7.27c1.86-1.14,4-2,6.11-1A4.11,4.11,0,0,1,61.12,38.44Z"/><path class="cls-3" d="M55.71,39.61H48.82c-.88,0-.88,2,0,2h6.89C56.59,41.61,56.59,39.61,55.71,39.61Z"/><path class="cls-3" d="M51.26,37.34v6.55c0,.83,2,.83,2,0V37.34C53.26,36.51,51.26,36.51,51.26,37.34Z"/></g><g id="Layer_18" data-name="Layer 18"><rect class="cls-4" x="-0.02" width="80" height="80"/></g></svg>