<svg xmlns="http://www.w3.org/2000/svg" width="80" height="80" viewBox="0 0 80 80"><defs><style>.cls-1{fill:#fff;}.cls-2{fill:#fb0;}.cls-3{fill:none;}.cls-4{fill:#444;}</style></defs><title>Taxi</title><g id="Layer_17" data-name="Layer 17"><path class="cls-1" d="M70.57,41.37l-.06-.15a2.81,2.81,0,0,0-2.39-1.32c-1.3-.15-2.61-.29-3.93-.41a240.38,240.38,0,0,0-25.32-.65q-7.48.12-15,.43c-2.28.09-4.57.1-6.84.35-2,.22-4,.59-6,.92a3.07,3.07,0,0,0-.9.24,1.1,1.1,0,0,0-.6,1.13A2.54,2.54,0,0,0,9.94,43a5.66,5.66,0,0,1,.55.8,2.27,2.27,0,0,1-.17,1.95c-.28.56-.85,1-1,1.66a2.71,2.71,0,0,0,.6,2.36,4,4,0,0,0,3.08.93,22,22,0,0,0,2.56-.13l.94-.12c1.64-.24,2-2,3.05-3,1.33-1.27,4-.89,5.26.33a23,23,0,0,1,1.5,2c1.26,1.51,4,1,5.74,1a150.84,150.84,0,0,1,17,.42,8.17,8.17,0,0,0,4-.33c1.32-.59,1.85-2.06,2.67-3.15C57.53,45.37,61.42,46,63.11,49c.42.76.24,1.81.77,2.48.7.87,2.15.63,3,.27a5.67,5.67,0,0,0,3-2.46,12,12,0,0,0,.7-3.62A10.87,10.87,0,0,0,70.57,41.37Z"/><path class="cls-2" d="M50.89,28.1c-.47-1.76-.9-5.8-2.81-6.6a4.81,4.81,0,0,0-1.6-.28c-2.49-.14-5.65-.55-7.8,1a9.13,9.13,0,0,0-2.68,3c-.33.61-1.21,2.07-.88,2.77,4.58.2,9.16.11,13.74.05a17.44,17.44,0,0,0,2,.07"/><path class="cls-2" d="M39.63,42.56c-8.51-.13-17.74-.36-26.25-.49-2.56,0-1.84,4,.72,4.08l25.53.38C42.19,46.57,42.19,42.6,39.63,42.56Z"/><path class="cls-3" d="M53,37.68Q51.56,35.36,50.12,33a7.72,7.72,0,0,0-2.9-3c-1.51-.76-3.18-.51-4.81-.47-.32,0-3.85.06-3.85.11a63.59,63.59,0,0,0,.12,7.81C43.45,37.44,48.22,37.49,53,37.68Z"/><path class="cls-3" d="M36.68,37.52c-.18,0-.18-6.07-.16-6.63a5.18,5.18,0,0,0,0-.88c0-.31-.14-.24-.47-.23-.56,0-1.12,0-1.68.06-2.1.1-4.26.17-6.34.35a5.64,5.64,0,0,0-2.82.72,5.56,5.56,0,0,0-1,1.06,15.73,15.73,0,0,0-1.41,1.94,17.32,17.32,0,0,0-1.93,4.33C24,38,27,37.83,30.05,37.7,32.26,37.61,34.47,37.56,36.68,37.52Z"/><circle class="cls-3" cx="21.89" cy="51.39" r="3.54"/><path class="cls-3" d="M66.85,40.54c-1.14-.11-2.28-.19-3.42-.28-3.09-.22-6.17-.41-9.26-.54-4.52-.19-9-.26-13.56-.26l-2,0c-1.23,0-2.46,0-3.69.07l-3.7.11c-1.23.05-2.46.1-3.69.17L23.84,40c-1.23.08-2.46.16-3.69.26s-2.45.19-3.68.3L12.79,41a9.52,9.52,0,0,0-1.06.11c-.3,0-.61,0-.91.11s-.48.07-.41.32a2.07,2.07,0,0,0,.2.46,7.84,7.84,0,0,1,.66,1.33,2.86,2.86,0,0,1-.19,2.2,8,8,0,0,0-1,1.79c-.3,1.36.82,2.15,2,2.38a10.19,10.19,0,0,0,2,.12h2.53A5.54,5.54,0,0,1,27.25,50h26.4a5.53,5.53,0,0,1,10.89,1.26c2.14-.07,4.27-.48,4.71-3,.19-1.09.14-2.21.3-3.31s1-2.78-.07-3.67A5.09,5.09,0,0,0,66.85,40.54Z"/><circle class="cls-3" cx="59" cy="51.39" r="3.54"/><path class="cls-4" d="M70.94,39.91c-1.56-1.43-4.08-1.37-6-1.53-1.71-.21-3.42-.33-5.14-.41-.85,0-1.71-.06-2.56-.09l-1.28,0a.75.75,0,0,1-.78-.48c-1.19-1.92-2.33-3.86-3.56-5.75a13.22,13.22,0,0,0-1.69-2.12h0a1,1,0,0,0,0-2A260.81,260.81,0,0,0,21.7,28.8c-1.26.13-1.28,2.13,0,2l1-.09c-.14,0-.52.66-.62.79-.22.29-.44.6-.64.91a19.17,19.17,0,0,0-1.13,1.91,20.62,20.62,0,0,0-.89,2c-.13.34-.27.67-.38,1s-.09.72-.32,1-1.06.24-1.45.27c-1.5.12-3,.29-4.54.39a13.49,13.49,0,0,0-2.77.28,2.8,2.8,0,0,0-1.18.62A2.13,2.13,0,0,0,8.46,42c.2.62.6,1.14.85,1.73s0,.86-.29,1.29a5.32,5.32,0,0,0-.92,1.88,4,4,0,0,0,.23,2.28,4.27,4.27,0,0,0,3.28,2.43,24.31,24.31,0,0,0,4.75.17,5.54,5.54,0,0,0,11,.22H53.49a5.54,5.54,0,0,0,10.73,1.27c1.87,0,3.93-.21,5.39-1.5,1.66-1.47,1.66-3.67,1.82-5.71S72.81,41.62,70.94,39.91ZM38.56,29.68c0-.05,3.53-.11,3.85-.11,1.63,0,3.3-.29,4.81.47a7.72,7.72,0,0,1,2.9,3q1.44,2.32,2.86,4.65c-4.76-.19-9.53-.24-14.3-.19A63.59,63.59,0,0,1,38.56,29.68ZM22.84,33.91A15.73,15.73,0,0,1,24.25,32a5.56,5.56,0,0,1,1-1.06,5.64,5.64,0,0,1,2.82-.72c2.08-.18,4.24-.25,6.34-.35.56,0,1.12-.06,1.68-.06.33,0,.43-.08.47.23a5.18,5.18,0,0,1,0,.88c0,.56,0,6.63.16,6.63-2.21,0-4.42.09-6.63.18-3.05.13-6.09.31-9.14.54A17.32,17.32,0,0,1,22.84,33.91Zm-.95,21a3.55,3.55,0,1,1,3.54-3.54A3.55,3.55,0,0,1,21.89,54.93Zm37.11,0a3.55,3.55,0,1,1,3.55-3.54A3.55,3.55,0,0,1,59,54.93ZM69.55,45c-.16,1.1-.11,2.22-.3,3.31-.44,2.5-2.57,2.91-4.71,3A5.53,5.53,0,0,0,53.65,50H27.25a5.54,5.54,0,0,0-10.66-.23H14.06a10.19,10.19,0,0,1-2-.12c-1.19-.23-2.31-1-2-2.38a8,8,0,0,1,1-1.79,2.86,2.86,0,0,0,.19-2.2A7.84,7.84,0,0,0,10.61,42a2.07,2.07,0,0,1-.2-.46c-.07-.25.22-.28.41-.32s.61-.07.91-.11A9.52,9.52,0,0,1,12.79,41l3.68-.35c1.23-.11,2.45-.21,3.68-.3s2.46-.18,3.69-.26l3.69-.21c1.23-.07,2.46-.12,3.69-.17l3.7-.11c1.23,0,2.46-.06,3.69-.07l2,0c4.52,0,9,.07,13.56.26,3.09.13,6.17.32,9.26.54,1.14.09,2.28.17,3.42.28a5.09,5.09,0,0,1,2.63.75C70.56,42.18,69.72,43.82,69.55,45Z"/><rect class="cls-3" width="80" height="80"/></g></svg>