<svg xmlns="http://www.w3.org/2000/svg" width="80" height="80" viewBox="0 0 80 80"><defs><style>.cls-1{fill:#fff;}.cls-2{fill:#444;}.cls-3{fill:#fb0;}.cls-4{fill:none;}</style></defs><title>Truck</title><g id="Layer_17" data-name="Layer 17"><path class="cls-1" d="M70.17,41.2c-2.32-4.32-5.32-4.29-9.23-3.78-1.75.23-7.57-.79-8.91.52-.86.85-.9,2.94-2.18,3-1.52.12-2.48.42-4,.43-5.36,0-10.35-.32-15.71-.43-3.07-.06-6.62-.26-9.68-.36-2.66-.09-8-.52-10.67,0-1.92.35-2.13,3.19-1.71,5.41C8.47,48,8,49.29,9.78,50.21c.76.39,2.33.15,3.66-.35.41-.51.7-1.18,1.16-1.66a5.26,5.26,0,0,1,3.59-1.54A6.42,6.42,0,0,1,22,47.77a3.94,3.94,0,0,1,1.5,2.13l.19.16c.7,0,1.4,0,2.1-.08,0,0,0,0,0-.07a21.73,21.73,0,0,1,1.47-2.36.9.9,0,0,1,.21-.24h0a1.37,1.37,0,0,1,.17-.17,5.55,5.55,0,0,1,3.78-.8,5.71,5.71,0,0,1,4.37,3.12c0,.61,0,.64.42.78.12,0,1.09-.16,1.21-.13,2.18.13,4.37.12,6.55.11,2.5,0,5,0,7.5-.15A12.41,12.41,0,0,0,53,49.94a9.29,9.29,0,0,0,.51-.83,5.57,5.57,0,0,1,1.1-1.36,4.65,4.65,0,0,1,3.23-1.13,6.42,6.42,0,0,1,3.27,1.1,6.09,6.09,0,0,1,1.35,1.18c.11.13.39,1.23.49,1.37A14.68,14.68,0,0,0,68.68,50C72.11,49.47,72,44.51,70.17,41.2Z"/><path class="cls-2" d="M51,52.48h0Z"/><path class="cls-3" d="M8.33,37.68a7.2,7.2,0,0,1-.19,1.22,1.49,1.49,0,0,0,.47,1.51c3.14,0,6.28,0,9.42,0,2.95,0,5.9-.09,8.86,0s6,.06,9,0,5.9,0,8.85,0l4.27.1c.23,0,.45,0,.68,0l.15-.11A1.51,1.51,0,0,0,51.14,39c0-2.18,0-4.36.06-6.54,0-1.09,0-2.18,0-3.27a11.66,11.66,0,0,0,0-3.18c-.84-3-5.38-2.33-8-2.22q-5.89.25-11.81.38t-11.81.12q-3,0-6.09,0c-1.64,0-2.87-.09-4.19.81a1.48,1.48,0,0,0-.56.67,2.18,2.18,0,0,0-.22.31,8.74,8.74,0,0,0-.59,4.08,34.34,34.34,0,0,0,.21,4.05A19.64,19.64,0,0,1,8.33,37.68Z"/><path class="cls-4" d="M18.4,47.43a3.93,3.93,0,1,0,3.93,3.93A3.93,3.93,0,0,0,18.4,47.43Z"/><path class="cls-4" d="M52.33,36.4H63.57A9.28,9.28,0,0,1,62.51,35c-.9-1.48-1.27-3.25-2.34-4.64-1.25-1.62-3.14-1.59-5-1.69L53.6,28.6c-.84,0-.93,0-1,.93a48,48,0,0,0-.26,6.78A.28.28,0,0,1,52.33,36.4Z"/><path class="cls-4" d="M31.05,47.43A3.93,3.93,0,1,0,35,51.36,3.93,3.93,0,0,0,31.05,47.43Z"/><path class="cls-4" d="M58,47.43a3.93,3.93,0,1,0,3.93,3.93A3.93,3.93,0,0,0,58,47.43Z"/><path class="cls-4" d="M68.81,40.53a23.14,23.14,0,0,0-2.54-1.84,5.13,5.13,0,0,0-2.85-.35H52.37a3.65,3.65,0,0,1-.87,2.45c-1.07,1.12-2.66,1-4.08,1l-12.8-.28-12.8-.28-6.52-.15a22.38,22.38,0,0,0-5.78.36A3.09,3.09,0,0,0,9,43.56,26.14,26.14,0,0,0,9,47.1a14,14,0,0,0,.27,1.7c.1.41.13.42.52.47a17.68,17.68,0,0,0,3.09.1A5.86,5.86,0,0,1,24,49.5h1.53a5.86,5.86,0,0,1,11.16.13H52.4a5.86,5.86,0,0,1,11.13-.21c1.28,0,2.55-.06,3.83-.12.43,0,1.67.09,2-.19s.23-1.46.27-1.9a31,31,0,0,0,.3-4.51A3,3,0,0,0,68.81,40.53Z"/><path class="cls-2" d="M70.87,39.77a18.68,18.68,0,0,0-3.44-2.59,10.72,10.72,0,0,1-3.34-3.33c-.75-1.31-1.26-2.75-2.05-4A5.57,5.57,0,0,0,58.54,27a22.21,22.21,0,0,0-5.81-.32c-1.8.14-2,1.82-2.14,3.29s-.13,2.94-.12,4.41a32.69,32.69,0,0,1,0,4.2c-.16,1.2-1.06,1.32-2.11,1.31-8.5,0-17-.37-25.52-.56l-7.25-.16c-1.28,0-2.56,0-3.84,0-.61,0-1.21.1-1.81.18A2.82,2.82,0,0,0,8.18,40a4.36,4.36,0,0,0-1.11,2.9,24.69,24.69,0,0,0,0,4.55c.15,1.37.28,3.16,1.86,3.6a9.15,9.15,0,0,0,2.09.21c.49,0,1,0,1.47,0v0a5.86,5.86,0,0,0,11.72.08h.93a5.86,5.86,0,0,0,11.71.13H52.15a5.86,5.86,0,0,0,11.71-.22c1.43,0,2.87-.05,4.29-.15,1.26-.1,2.75-.19,3.16-1.62A14,14,0,0,0,71.59,47c.08-.88.16-1.76.23-2.63C71.93,42.8,72,41,70.87,39.77ZM52.58,29.53c.09-.9.18-1,1-.93l1.58.06c1.85.1,3.74.07,5,1.69,1.07,1.39,1.44,3.16,2.34,4.64a9.28,9.28,0,0,0,1.06,1.41H52.33a.28.28,0,0,0,0-.09A48,48,0,0,1,52.58,29.53ZM18.4,55.29a3.93,3.93,0,1,1,3.93-3.93A3.93,3.93,0,0,1,18.4,55.29Zm12.65,0A3.93,3.93,0,1,1,35,51.36,3.94,3.94,0,0,1,31.05,55.29Zm27,0a3.93,3.93,0,1,1,3.93-3.93A3.93,3.93,0,0,1,58,55.29Zm11.63-8.08c0,.44.05,1.61-.27,1.9s-1.57.17-2,.19c-1.28.06-2.55.09-3.83.12a5.86,5.86,0,0,0-11.13.21H36.65a5.86,5.86,0,0,0-11.16-.13H24a5.86,5.86,0,0,0-11.07-.13,17.68,17.68,0,0,1-3.09-.1c-.39-.05-.42-.06-.52-.47A14,14,0,0,1,9,47.1a26.14,26.14,0,0,1,0-3.54,3.09,3.09,0,0,1,.55-2.12,22.38,22.38,0,0,1,5.78-.36l6.52.15,12.8.28,12.8.28c1.42,0,3,.12,4.08-1a3.65,3.65,0,0,0,.87-2.45H63.42a5.13,5.13,0,0,1,2.85.35,23.14,23.14,0,0,1,2.54,1.84,3,3,0,0,1,1.12,2.17A31,31,0,0,1,69.63,47.21Z"/><path class="cls-3" d="M69.4,39.92a2.15,2.15,0,0,1,.41-.86l.31-.3a1.32,1.32,0,0,1,.79-.27h.54a1,1,0,0,1,.6.17,1.21,1.21,0,0,1,.51.4,1.57,1.57,0,0,1,.32.63,1.7,1.7,0,0,1,.13.75c0,.17,0,.35-.05.52a2.2,2.2,0,0,1-.4.86l-.32.3a1.3,1.3,0,0,1-.79.27h-.54a1,1,0,0,1-.6-.17,1.13,1.13,0,0,1-.5-.4,1.59,1.59,0,0,1-.33-.63,1.7,1.7,0,0,1-.13-.75Z"/><rect class="cls-4" width="80" height="80"/></g></svg>